<svg width="88" height="82" viewBox="0 0 88 82" fill="none" xmlns="http://www.w3.org/2000/svg">
<path d="M50.5 52.5V45H80.5V67.5C80.5 71.5625 76.9062 75 73 75H8C3.9375 75 0.5 71.5625 0.5 67.5V45H30.5V52.5C30.5 53.9062 31.5938 55 33 55H48C49.25 55 50.5 53.9062 50.5 52.5ZM73 15C76.9062 15 80.5 18.5938 80.5 22.5V40H0.5V22.5C0.5 18.5938 3.9375 15 8 15H20.5V7.5C20.5 3.59375 23.9375 0 28 0H53C56.9062 0 60.5 3.59375 60.5 7.5V15H73ZM53 15V7.5H28V15H53Z" fill="#EDF2F6"/>
<path d="M57.5 66.75C57.5 58.4883 64.1797 51.75 72.5 51.75C80.7617 51.75 87.5 58.4883 87.5 66.75C87.5 75.0703 80.7617 81.75 72.5 81.75C64.1797 81.75 57.5 75.0703 57.5 66.75ZM67.7539 63.9961L70.5078 66.75L67.7539 69.5039C67.168 70.0898 67.168 70.9688 67.7539 71.4961C68.2812 72.082 69.1602 72.082 69.6875 71.4961L72.4414 68.7422L75.2539 71.4961C75.7812 72.082 76.6602 72.082 77.1875 71.4961C77.7734 70.9688 77.7734 70.0898 77.1875 69.5039L74.4336 66.75L77.1875 63.9961C77.7734 63.4688 77.7734 62.5898 77.1875 62.0039C76.6602 61.4766 75.7812 61.4766 75.2539 62.0039L72.4414 64.8164L69.6875 62.0039C69.1602 61.4766 68.2812 61.4766 67.7539 62.0039C67.168 62.5898 67.168 63.4688 67.7539 63.9961Z" fill="url(#paint0_linear_10467_51098)"/>
<defs>
<linearGradient id="paint0_linear_10467_51098" x1="72.5" y1="52" x2="72.5" y2="82" gradientUnits="userSpaceOnUse">
<stop stop-color="#0094D6"/>
<stop offset="1" stop-color="#049BDE"/>
</linearGradient>
</defs>
</svg>
